<svg width="26" height="26" viewBox="0 0 26 26" fill="none" xmlns="http://www.w3.org/2000/svg">
<path d="M11.8804 9.51275C12.0431 9.36018 12.1345 9.15326 12.1345 8.9375C12.1345 8.72174 12.0431 8.51482 11.8804 8.36225C11.7176 8.20968 11.4969 8.12397 11.2668 8.12397C11.0366 8.12397 10.8159 8.20968 10.6532 8.36225L8.2057 10.6567L7.51756 10.0685C7.34659 9.93149 7.12549 9.86217 6.901 9.87518C6.6765 9.88819 6.4662 9.98251 6.31452 10.1382C6.16284 10.2939 6.08167 10.4988 6.08816 10.7096C6.09465 10.9204 6.18829 11.1205 6.3493 11.2677L7.6493 12.3809C7.81401 12.5215 8.03015 12.5972 8.25285 12.5924C8.47555 12.5875 8.68771 12.5025 8.8453 12.3549L11.8786 9.51113L11.8804 9.51275ZM11.8804 16.4872C11.9611 16.5627 12.0251 16.6524 12.0688 16.7511C12.1125 16.8498 12.135 16.9556 12.135 17.0625C12.135 17.1694 12.1125 17.2752 12.0688 17.3739C12.0251 17.4726 11.9611 17.5623 11.8804 17.6378L8.84703 20.4815C8.68914 20.6294 8.47649 20.7144 8.25338 20.7189C8.03027 20.7235 7.81389 20.6472 7.6493 20.5059L6.3493 19.3927C6.18829 19.2455 6.09465 19.0454 6.08816 18.8346C6.08167 18.6238 6.16284 18.4189 6.31452 18.2632C6.4662 18.1075 6.6765 18.0132 6.901 18.0002C7.12549 17.9872 7.34659 18.0565 7.51756 18.1935L8.2057 18.7834L10.6532 16.4872C10.7337 16.4116 10.8293 16.3516 10.9346 16.3106C11.0399 16.2696 11.1528 16.2485 11.2668 16.2485C11.3808 16.2485 11.4936 16.2696 11.5989 16.3106C11.7042 16.3516 11.7999 16.4116 11.8804 16.4872ZM14.7334 17.875C14.5036 17.875 14.2831 17.9606 14.1206 18.113C13.9581 18.2653 13.8668 18.472 13.8668 18.6875C13.8668 18.903 13.9581 19.1097 14.1206 19.262C14.2831 19.4144 14.5036 19.5 14.7334 19.5H19.0668C19.2966 19.5 19.5171 19.4144 19.6796 19.262C19.8421 19.1097 19.9334 18.903 19.9334 18.6875C19.9334 18.472 19.8421 18.2653 19.6796 18.113C19.5171 17.9606 19.2966 17.875 19.0668 17.875H14.7334ZM13.8668 10.5625C13.8668 10.347 13.9581 10.1403 14.1206 9.98798C14.2831 9.8356 14.5036 9.75 14.7334 9.75H19.0668C19.2966 9.75 19.5171 9.8356 19.6796 9.98798C19.8421 10.1403 19.9334 10.347 19.9334 10.5625C19.9334 10.778 19.8421 10.9847 19.6796 11.137C19.5171 11.2894 19.2966 11.375 19.0668 11.375H14.7334C14.5036 11.375 14.2831 11.2894 14.1206 11.137C13.9581 10.9847 13.8668 10.778 13.8668 10.5625ZM10.4001 3.35135e-07C9.8622 -0.00026403 9.33745 0.155883 8.89818 0.446921C8.45891 0.737959 8.12673 1.14956 7.94743 1.625H5.2001C4.51053 1.625 3.84921 1.88181 3.36162 2.33893C2.87403 2.79605 2.6001 3.41604 2.6001 4.0625V23.5625C2.6001 24.209 2.87403 24.829 3.36162 25.2861C3.84921 25.7432 4.51053 26 5.2001 26H20.8001C21.4897 26 22.151 25.7432 22.6386 25.2861C23.1262 24.829 23.4001 24.209 23.4001 23.5625V4.0625C23.4001 3.41604 23.1262 2.79605 22.6386 2.33893C22.151 1.88181 21.4897 1.625 20.8001 1.625H18.0528C17.8735 1.14956 17.5413 0.737959 17.102 0.446921C16.6627 0.155883 16.138 -0.00026403 15.6001 3.35135e-07H10.4001ZM9.53343 2.4375C9.53343 2.22201 9.62474 2.01535 9.78727 1.86298C9.9498 1.7106 10.1702 1.625 10.4001 1.625H15.6001C15.83 1.625 16.0504 1.7106 16.2129 1.86298C16.3755 2.01535 16.4668 2.22201 16.4668 2.4375C16.4668 2.65299 16.3755 2.85965 16.2129 3.01202C16.0504 3.1644 15.83 3.25 15.6001 3.25H10.4001C10.1702 3.25 9.9498 3.1644 9.78727 3.01202C9.62474 2.85965 9.53343 2.65299 9.53343 2.4375ZM5.2001 3.25H7.94743C8.12673 3.72544 8.45891 4.13704 8.89818 4.42808C9.33745 4.71912 9.8622 4.87526 10.4001 4.875H15.6001C16.138 4.87526 16.6627 4.71912 17.102 4.42808C17.5413 4.13704 17.8735 3.72544 18.0528 3.25H20.8001C21.03 3.25 21.2504 3.3356 21.4129 3.48798C21.5755 3.64035 21.6668 3.84701 21.6668 4.0625V23.5625C21.6668 23.778 21.5755 23.9847 21.4129 24.137C21.2504 24.2894 21.03 24.375 20.8001 24.375H5.2001C4.97024 24.375 4.7498 24.2894 4.58727 24.137C4.42474 23.9847 4.33343 23.778 4.33343 23.5625V4.0625C4.33343 3.84701 4.42474 3.64035 4.58727 3.48798C4.7498 3.3356 4.97024 3.25 5.2001 3.25Z" fill="#C4C4C4"/>
</svg>
